<svg width="48" height="48" viewBox="0 0 48 48" fill="none" xmlns="http://www.w3.org/2000/svg">
<path d="M26.5376 7.33761C27.1377 6.7377 27.9515 6.4007 28.8 6.4007C29.6485 6.4007 30.4623 6.7377 31.0624 7.33761L45.4624 21.7376C46.0623 22.3377 46.3993 23.1515 46.3993 24C46.3993 24.8485 46.0623 25.6623 45.4624 26.2624L31.0624 40.6624C30.4588 41.2453 29.6505 41.5679 28.8115 41.5606C27.9725 41.5533 27.1699 41.2167 26.5766 40.6234C25.9833 40.0301 25.6467 39.2275 25.6394 38.3885C25.6321 37.5495 25.9547 36.7411 26.5376 36.1376L35.2 27.2H4.79998C3.95128 27.2 3.13735 26.8629 2.53723 26.2628C1.93712 25.6626 1.59998 24.8487 1.59998 24C1.59998 23.1513 1.93712 22.3374 2.53723 21.7373C3.13735 21.1372 3.95128 20.8 4.79998 20.8H35.2L26.5376 11.8624C25.9377 11.2623 25.6007 10.4485 25.6007 9.60001C25.6007 8.75149 25.9377 7.9377 26.5376 7.33761Z" fill="#EFEFEF"/>
</svg>
